<?xml version="1.0" encoding="utf-8"?>
<!-- Generator: Adobe Illustrator 21.1.0, SVG Export Plug-In . SVG Version: 6.00 Build 0)  -->
<svg version="1.1" id="enlightened_1_" xmlns="http://www.w3.org/2000/svg" xmlns:xlink="http://www.w3.org/1999/xlink" x="0px"
	 y="0px" viewBox="0 0 532 909.2" style="enable-background:new 0 0 532 909.2;" xml:space="preserve">
<style type="text/css">
	.st0{fill:#FFFFFF;}
</style>
<g>
	<g>
		<path class="st0" d="M323.7,208.7c-17.4-10.3-37.1-20.7-55-26.9V67.5l66.5,50l-6.5,38l10.5,7l20.5-59.5L233.7,0v199.7
			c30.5,4.8,60.2,14.1,85,22.3L323.7,208.7z"/>
	</g>
	<g>
		<path class="st0" d="M419.7,159.8L372,236c0,0,56,36.5,82.3,56.5c39.8-17.5,77.7-38.8,77.7-38.8L419.7,159.8z M401.2,227.7
			l28-39.7l73.2,59.8c0,0-20.6,10.2-46,21.9C439.2,256.8,401.2,227.7,401.2,227.7z"/>
	</g>
	<g>
		<path class="st0" d="M421.4,387c-15.4,13.9-27.4,22.2-52.2,34.5l55.2,124L498.2,418L421.4,387z M404.9,438
			c10.8-6.4,21-14.9,28.3-23.8l41,18.9l-39.5,67L404.9,438z"/>
	</g>
	<g>
		<path class="st0" d="M323,441.2l9.2,33.5c-22,12.9-49.5,14-49.5,14V791l77-123.2l-25.5-114.6l16.2-8.8l35.5,134L244.7,909.2V456.8
			C276.5,454.2,299.5,449.5,323,441.2z"/>
	</g>
	<g>
		<path class="st0" d="M0,332.8c0,0,31,21.8,57.5,28c19-9.3,35-24.8,67.7-41.3c40.7-20.7,80.7-21.1,104.3-20.8
			c28,0.3,65.2,2.5,109.2,20.5s58.7,27.2,77.5,33.8c21.7-9.7,32-22.5,32-22.5s-17.7-0.2-21.5,0c-7.7-4.8-34.2-21.4-68.7-38.8
			c-36.3-18.3-57-31.8-126.8-34.5S132,276.9,91.7,297.7c-30.1,15.5-41,23.8-61.8,33.8C24.4,332.2,0,332.8,0,332.8z"/>
	</g>
	<g>
		<path class="st0" d="M159.2,342.8c0,0,32.2,34,74,32.5c43-1.6,73.2-33.7,73.2-33.7l53,23.5c0,0-52.4,40.1-122.4,39.8
			c-73.2-0.3-122.5-33-122.5-33S138.7,354.7,159.2,342.8z"/>
	</g>
</g>
</svg>
