<?xml version="1.0" encoding="utf-8"?>
<!-- Generator: Adobe Illustrator 21.1.0, SVG Export Plug-In . SVG Version: 6.00 Build 0)  -->
<svg version="1.1" id="resistance" xmlns="http://www.w3.org/2000/svg" xmlns:xlink="http://www.w3.org/1999/xlink" x="0px" y="0px"
	 viewBox="0 0 608.4 907.9" style="enable-background:new 0 0 608.4 907.9;" xml:space="preserve">
<style type="text/css">
	.st0{fill:#FFFFFF;}
</style>
<g>
	<g>
		<polygon class="st0" points="338.4,0 380.9,34.8 574,34.8 574,608.6 304.2,860 34.6,608.6 34.6,34.8 227.5,34.8 270,0 0,0 
			0,624.4 304.2,907.9 608.4,624.4 608.4,0 		"/>
	</g>
	<g>
		<path class="st0" d="M365.4,332.4v-15.5l164.8-124.6V83.6H358.7l-54.5-43l-54.5,43H78.2v108.8L243,317v15.5h29.8v27.1h-30v34.2h30
			v203.4h-80.6V563h43.2v-50.2H137V631l102.4,95.4v-42.7h33.5v73.9l31.4,29.4l31.4-29.4V393.8h30v-34.2h-30v-27.2H365.4z
			 M304.2,78.7l37.2,29.4l-37.2,39l-37.2-39L304.2,78.7z M304.2,246.5l-56.6,16l-122.8-92.8v-39.2h124.4l55.1,57.7l55.1-57.7h124.4
			v39.2l-123,92.8L304.2,246.5z"/>
	</g>
</g>
</svg>
