<svg id="ingress" xmlns="http://www.w3.org/2000/svg" viewBox="0 0 1426.34 1647"><defs><style>.cls-1{fill:#fff;}</style></defs><title>ingress</title><path class="cls-1" d="M1542.45,724.68H505.55l518.45,898ZM1070,1359V1050.56l267.1-154.21Zm221.1-542.3L1024,970.89,756.9,816.68ZM710.9,896.35,978,1050.56V1359Z" transform="translate(-310.83 -200.5)"/><path class="cls-1" d="M1024,200.5,310.83,612.25v823.5L1024,1847.5l713.17-411.75V612.25ZM1403.59,1190l-46,79.68,241.59,139.48L1024,1741.27,448.83,1409.2l241.59-139.48-46-79.68L402.83,1329.52V665.37L978,333.29v279h92v-279l575.17,332.08v664.15Z" transform="translate(-310.83 -200.5)"/></svg>